<!-- created by svgstack.com | Attribution is required. --><svg width="171" height="170" viewBox="0 0 171 170" fill="none" xmlns="http://www.w3.org/2000/svg"><g opacity="0.5" filter="url(#filter0_f_35_722)"><rect x="4" y="4" width="163" height="162" rx="40" stroke="url(#paint0_linear_35_722)" stroke-width="3"/></g><path d="M118.5 135.75H53.5C44.5246 135.75 37.25 128.475 37.25 119.5V69.4771C37.25 63.5729 40.4513 58.14 45.6079 55.2746L78.1079 37.2208C83.0154 34.4963 88.9846 34.4963 93.8921 37.2208L126.392 55.2746C131.549 58.14 134.75 63.5783 134.75 69.4771V119.5C134.75 128.475 127.475 135.75 118.5 135.75Z" fill="url(#paint1_linear_35_722)"/><path d="M86 37.8817C88.2967 37.8817 90.5717 38.4721 92.5758 39.5879L125.076 57.6417C129.371 60.025 132.042 64.5642 132.042 69.4771V119.5C132.042 126.964 125.964 133.042 118.5 133.042H53.5C46.0304 133.042 39.9583 126.964 39.9583 119.5V69.4771C39.9583 64.5642 42.6287 60.025 46.9242 57.6417L79.4242 39.5879C81.4283 38.4721 83.7033 37.8817 86 37.8817ZM86 35.1733C83.2808 35.1733 80.5617 35.8558 78.1079 37.2208L45.6079 55.2746C40.4513 58.14 37.25 63.5783 37.25 69.4771V119.5C37.25 128.475 44.5246 135.75 53.5 135.75H118.5C127.475 135.75 134.75 128.475 134.75 119.5V69.4771C134.75 63.5729 131.549 58.14 126.392 55.2746L93.8921 37.2208C91.4383 35.8558 88.7192 35.1733 86 35.1733Z" fill="url(#paint2_linear_35_722)"/><path d="M102.25 135.75H69.75V103.25C69.75 97.2646 74.5979 92.4167 80.5833 92.4167H91.4167C97.4021 92.4167 102.25 97.2646 102.25 103.25V135.75Z" fill="url(#paint3_linear_35_722)"/><defs><filter id="filter0_f_35_722" x="0.5" y="0.5" width="170" height="169" filterUnits="userSpaceOnUse" color-interpolation-filters="sRGB"><feFlood flood-opacity="0" result="BackgroundImageFix"/><feBlend mode="normal" in="SourceGraphic" in2="BackgroundImageFix" result="shape"/><feGaussianBlur stdDeviation="1" result="effect1_foregroundBlur_35_722"/></filter><linearGradient id="paint0_linear_35_722" x1="4" y1="4" x2="165.997" y2="166.997" gradientUnits="userSpaceOnUse"><stop stop-color="white"/><stop offset="0.549032" stop-color="white" stop-opacity="0"/><stop offset="0.608579" stop-color="white" stop-opacity="0"/><stop offset="1" stop-color="white"/></linearGradient><linearGradient id="paint1_linear_35_722" x1="45.7542" y1="54.2427" x2="126.246" y2="134.735" gradientUnits="userSpaceOnUse"><stop stop-color="white" stop-opacity="0.6"/><stop offset="1" stop-color="white" stop-opacity="0.3"/></linearGradient><linearGradient id="paint2_linear_35_722" x1="45.7542" y1="54.2427" x2="126.246" y2="134.735" gradientUnits="userSpaceOnUse"><stop stop-color="white" stop-opacity="0.6"/><stop offset="0.4927" stop-color="white" stop-opacity="0"/><stop offset="0.9971" stop-color="white" stop-opacity="0.3"/></linearGradient><linearGradient id="paint3_linear_35_722" x1="68.6282" y1="99.8846" x2="103.372" y2="134.628" gradientUnits="userSpaceOnUse"><stop stop-color="white" stop-opacity="0.7"/><stop offset="0.5188" stop-color="white" stop-opacity="0.45"/><stop offset="0.9998" stop-color="white" stop-opacity="0.55"/></linearGradient></defs></svg> 